<?xml version="1.0" encoding="UTF-8" standalone="no"?>
<!-- Created with Inkscape (http://www.inkscape.org/) -->

<svg
   xmlns:dc="http://purl.org/dc/elements/1.1/"
   xmlns:cc="http://creativecommons.org/ns#"
   xmlns:rdf="http://www.w3.org/1999/02/22-rdf-syntax-ns#"
   xmlns:svg="http://www.w3.org/2000/svg"
   xmlns="http://www.w3.org/2000/svg"
   xmlns:sodipodi="http://sodipodi.sourceforge.net/DTD/sodipodi-0.dtd"
   xmlns:inkscape="http://www.inkscape.org/namespaces/inkscape"
   width="545mm"
   height="90mm"
   viewBox="0 0 1931.1022 318.89763"
   id="svg2"
   version="1.1"
   inkscape:version="0.91 r13725"
   sodipodi:docname="call for paper poster.svg">
  <defs
     id="defs4">
    <filter
       inkscape:collect="always"
       style="color-interpolation-filters:sRGB"
       id="filter5529"
       x="-0.059047058"
       width="1.1180941"
       y="-0.14547825"
       height="1.2909565">
      <feGaussianBlur
         inkscape:collect="always"
         stdDeviation="8.6672654"
         id="feGaussianBlur5531" />
    </filter>
    <filter
       inkscape:collect="always"
       style="color-interpolation-filters:sRGB"
       id="filter6003"
       x="-0.038643006"
       width="1.077286"
       y="-0.13413043"
       height="1.268261">
      <feGaussianBlur
         inkscape:collect="always"
         stdDeviation="7.9911877"
         id="feGaussianBlur6005" />
    </filter>
  </defs>
  <sodipodi:namedview
     id="base"
     pagecolor="#ffffff"
     bordercolor="#666666"
     borderopacity="1.0"
     inkscape:pageopacity="0.0"
     inkscape:pageshadow="2"
     inkscape:zoom="0.45254834"
     inkscape:cx="1206.7885"
     inkscape:cy="372.0018"
     inkscape:document-units="px"
     inkscape:current-layer="g4718"
     showgrid="false"
     units="mm"
     width="728mm"
     inkscape:window-width="1333"
     inkscape:window-height="744"
     inkscape:window-x="33"
     inkscape:window-y="24"
     inkscape:window-maximized="1"
     showborder="true" />
  <metadata
     id="metadata7">
    <rdf:RDF>
      <cc:Work
         rdf:about="">
        <dc:format>image/svg+xml</dc:format>
        <dc:type
           rdf:resource="http://purl.org/dc/dcmitype/StillImage" />
        <dc:title></dc:title>
      </cc:Work>
    </rdf:RDF>
  </metadata>
  <g
     inkscape:label="Layer 1"
     inkscape:groupmode="layer"
     id="layer1"
     transform="translate(0,-733.46456)">
    <g
       id="g4718"
       transform="matrix(2.25174,0,0,2.25174,218.41091,740.65075)">
      <g
         id="g6326"
         transform="translate(0,0.36632886)">
        <g
           id="g6323">
          <rect
             style="fill:#000080;fill-opacity:1;stroke:none;stroke-width:14.17322826;stroke-linejoin:miter;stroke-miterlimit:4;stroke-dasharray:none;stroke-dashoffset:0;stroke-opacity:1;filter:url(#filter5529)"
             id="rect4867"
             width="352.28574"
             height="142.98657"
             x="-96.996506"
             y="-3.5190554"
             ry="2.6786842" />
        </g>
      </g>
      <g
         id="g56"
         style="opacity:1;fill:#37c841;fill-opacity:1;stroke:none"
         transform="matrix(0.92846293,0,0,0.92846293,-4.6617528,6.6641032)">
        <g
           transform="matrix(1.60232,0,0,1.60232,32.55,46.05)"
           id="PathID_1"
           style="opacity:1;fill:#37c841;fill-opacity:1;stroke:none">
          <path
             id="path59"
             d="m 8.2,-4.75 q -13.3,6.5 -18.05,14.1 -5.8,9.4 2.45,19.4 Q -22,17.6 -20.05,0.55 q 1.8,-15.5 14.55,-24.55 7.15,-5 14.25,-4.7 6.4,0.25 9.6,4.4 3.35,4.2 1.15,9.4 Q 17,-8.95 8.2,-4.75"
             style="fill:#37c841;fill-opacity:1;stroke:none"
             inkscape:connector-curvature="0" />
        </g>
        <g
           transform="matrix(1.60232,0,0,1.60232,32.55,46.05)"
           id="PathID_2"
           style="opacity:1;fill:#37c841;fill-opacity:1;stroke:none" />
      </g>
      <g
         id="g115"
         style="opacity:1;fill:#37c841;fill-opacity:1;stroke:none"
         transform="matrix(0.92533626,0,0,0.92533626,2.8242638,8.5884342)">
        <g
           transform="matrix(1.60232,0,0,1.60232,39.25,88.7)"
           id="PathID_3"
           style="opacity:1;fill:#37c841;fill-opacity:1;stroke:none">
          <path
             id="path118"
             d="M 7.45,-28.7 Q 22,-17.45 20.15,-0.4 18.35,15.05 5.6,24 q -7.2,5.1 -14.3,4.75 -6.35,-0.3 -9.6,-4.35 -3.3,-4.25 -1.15,-9.45 Q -17.05,9 -8.2,4.8 5.15,-1.65 9.9,-9.2 15.75,-18.65 7.45,-28.7"
             style="fill:#37c841;fill-opacity:1;stroke:none"
             inkscape:connector-curvature="0" />
        </g>
        <g
           transform="matrix(1.60232,0,0,1.60232,39.25,88.7)"
           id="PathID_4"
           style="opacity:1;fill:#37c841;fill-opacity:1;stroke:none" />
      </g>
      <g
         transform="matrix(0.46875,0,0,0.46875,71.9,82.55)"
         id="PathID_8"
         style="opacity:1" />
      <g
         transform="matrix(0.46875,0,0,0.46875,78.65,82.55)"
         id="PathID_10"
         style="opacity:1" />
      <g
         transform="matrix(0.46875,0,0,0.46875,89.4,82.55)"
         id="PathID_12"
         style="opacity:1" />
      <g
         transform="matrix(0.46875,0,0,0.46875,100.15,82.55)"
         id="PathID_14"
         style="opacity:1" />
      <g
         transform="matrix(0.46875,0,0,0.46875,109.65,82.55)"
         id="PathID_16"
         style="opacity:1" />
      <g
         transform="matrix(0.46875,0,0,0.46875,116.4,82.55)"
         id="PathID_18"
         style="opacity:1" />
      <g
         transform="matrix(0.46875,0,0,0.46875,123.15,82.55)"
         id="PathID_20"
         style="opacity:1" />
      <g
         transform="matrix(0.46875,0,0,0.46875,134.9,82.55)"
         id="PathID_22"
         style="opacity:1" />
      <g
         id="g6330"
         transform="matrix(1.210903,0,0,1.210903,-9.6424067,-15.107296)">
        <g
           style="fill:#f12799;fill-opacity:1"
           id="g174"
           transform="translate(1.4670077,2.2005116)">
          <g
             id="PathID_5"
             transform="matrix(0.78125,0,0,0.78125,16.9,84.6)"
             style="opacity:1;fill:#f12799;fill-opacity:1">
            <path
               inkscape:connector-curvature="0"
               style="fill:#f12799;fill-opacity:1"
               d="m 33.4,-38.15 q 2.85,0.8 4.25,2.2 2.05,2 2.05,4.65 0,2.1 -1.5,4.3 -1.5,2.2 -5.15,4.45 2.85,0.2 4.5,1.05 1.65,0.85 2.3,2.2 0.7,1.35 0.7,4.3 l 0,8.85 Q 31.5,-5.1 25.15,0 22.75,-1.5 20.7,-2.15 17.85,-3.1 14.4,-3.1 q -4.15,0 -6.65,1.7 -1.5,1.05 -1.5,1.95 0,0.3 0.5,1.15 0.55,0.9 0.55,1.55 0,0.7 -0.55,1.2 -0.5,0.5 -1.2,0.5 -0.9,0 -1.6,-0.8 -0.65,-0.8 -0.65,-2 0,-1.1 0.7,-2.4 0.7,-1.3 2.9,-3.55 2.25,-2.3 2.85,-3.3 0.6,-1 0.6,-1.75 0,-0.85 -0.6,-1.4 -0.55,-0.6 -1.45,-0.6 -0.8,0 -1.3,0.45 -0.45,0.45 -0.75,2 l -1.8,0 -0.05,-1.2 q 0,-2.25 1.5,-3.7 1.55,-1.5 4.05,-1.5 l 0.35,0.05 q -0.05,-1.75 -0.5,-2.5 -1.1,-1.8 -3,-1.8 -1.2,0 -2.2,0.7 -0.35,0.25 -1.05,1.55 l -1.7,-0.45 q 0.25,-2.95 1.95,-4.5 1.7,-1.55 4.35,-1.55 0.85,0 1.75,0.15 0.1,-3 0.65,-4.65 0.55,-1.7 1.9,-3.05 1.35,-1.4 4.75,-2.8 -2.75,1.05 -5.2,1.05 -1.55,0 -4.1,-0.55 -1.25,-0.3 -1.75,-0.3 -0.9,0 -1.5,0.6 -0.6,0.6 -0.9,2.75 l -1.9,0 q 0.05,-2.85 0.85,-4.45 0.8,-1.6 2.45,-2.6 1.7,-1 3.55,-1 1.35,0 4.3,0.75 2.95,0.75 4.75,0.75 1.25,0 2.45,-0.25 1.25,-0.3 3.75,-1.25 l 0.75,1.85 q -5.5,2.7 -7.15,5.05 -1.65,2.3 -1.65,6.2 l 0,10.05 q 0,3.4 -0.8,5.35 -0.75,1.9 -2.9,3.5 3.45,-1.7 4.85,-3.7 1.45,-2 1.45,-5.95 l 0,-7.2 q 0,-5.15 0.9,-7.35 0.95,-2.2 3.4,-3.75 2.45,-1.55 10.6,-4.05 m -4.2,3.45 q -2.3,1.1 -3.15,1.85 -0.85,0.75 -1.15,1.8 -0.3,1.05 -0.3,3.7 l 0,10.05 q 0,2.75 -0.55,4.2 -0.55,1.45 -2.05,2.85 -1.45,1.4 -5.5,2.95 1.75,-0.35 3.75,-0.35 3.5,0 5.95,0.95 l 0,-20.45 2.2,0 0,6.4 q 2.4,-1.9 3.9,-3.9 1.55,-2.05 1.55,-4.4 0,-1.85 -1.2,-3.2 -1.15,-1.4 -3.45,-2.45 m -0.8,17.65 q 1.5,0.5 3.05,0.5 1.5,0 3.1,-0.55 0,-1.15 -0.7,-2.05 -0.65,-0.9 -2.35,-1.7 -2.4,1.7 -3.1,2.05 l 0,1.75 m 6.15,1.9 q -1.45,0.7 -3.1,0.7 -1.8,0 -3.05,-0.7 l 0,3.4 q 1.2,-0.7 2.95,-0.7 1.65,0 3.2,0.7 l 0,-3.4 m 0,5.4 q -1.85,-0.7 -3.3,-0.7 -1.5,0 -2.85,0.65 l 0,3.7 q 0.75,0.35 1.4,0.85 2.25,-1.3 4.75,-2 l 0,-2.5"
               id="path177" />
          </g>
          <g
             style="opacity:1;fill:#f12799;fill-opacity:1"
             id="PathID_6"
             transform="matrix(0.78125,0,0,0.78125,16.9,84.6)" />
        </g>
        <g
           id="g6354"
           transform="translate(-6.601535,0)">
          <g
             transform="matrix(0.46875,0,0,0.46875,71.9,82.55)"
             id="PathID_7"
             style="opacity:1;fill:#f12799;fill-opacity:1">
            <path
               id="path181"
               d="m 8.4,-35.2 3.2,0 -3.45,5.4 -1.05,0 1.3,-5.4 m -1.9,8.5 4.45,3.7 -2,1.9 0,13.65 q 0,2.15 0.35,2.8 Q 9.65,-4 10.05,-4 l 0.5,-0.1 1.3,-1.1 0.65,0.8 L 7.1,0 Q 5.1,-1.4 4.5,-2.65 3.95,-3.95 3.95,-7.1 l 0,-14 -1.9,-1.9 4.45,-3.7"
               style="fill:#f12799;fill-opacity:1"
               inkscape:connector-curvature="0" />
          </g>
          <g
             transform="matrix(0.46875,0,0,0.46875,78.65,82.55)"
             id="PathID_9"
             style="opacity:1;fill:#f12799;fill-opacity:1">
            <path
               id="path185"
               d="m 19.9,-23.05 0,18.75 q -3.8,1.55 -5.5,2.5 -1.25,0.75 -2.45,1.8 -3.6,-2.2 -6,-3.05 Q 4.15,-3.75 1.9,-3.8 L 1.65,-4.3 Q 2.6,-5.1 2.85,-5.75 3.2,-6.6 3.2,-8.6 l 0,-13.8 q 4.6,-1.5 7.9,-4.3 3.55,2.35 8.8,3.65 m -11.6,16.3 6.5,2.7 0,-15.9 q -3.1,-1.4 -4.35,-1.85 -0.9,-0.35 -2.15,-0.6 l 0,15.65"
               style="fill:#f12799;fill-opacity:1"
               inkscape:connector-curvature="0" />
          </g>
          <g
             transform="matrix(0.46875,0,0,0.46875,89.4,82.55)"
             id="PathID_11"
             style="opacity:1;fill:#f12799;fill-opacity:1">
            <path
               id="path189"
               d="m 11.75,-35.85 0.2,0.6 q -1.8,1.15 -2.45,2.45 -0.65,1.3 -0.65,4.15 l 0,8.1 7.65,-6.15 q 2.45,1.65 3.2,3.15 0.75,1.45 0.75,5.05 l 0,11.35 q 0,3.25 -0.7,4.75 Q 18.7,0.1 15.8,2.25 12,5.1 6.2,7.15 L 5.85,6.2 Q 10.6,4.25 12.45,2.6 14.35,1 14.9,-0.85 15.35,-2.2 15.35,-8 l 0,-10.5 q 0,-1.75 -0.4,-2.45 -0.5,-0.9 -1.9,-1.8 l -4.2,3.45 0,13.9 1.8,1.85 L 6.2,0 1.75,-3.55 l 2,-2 0,-22.7 q 0,-3.1 -0.55,-4.25 -0.55,-1.15 -2.15,-2.1 l 0.3,-0.65 q 1.3,0.4 2.05,0.85 0.8,0.45 2.1,1.6 1.55,-1.45 2.95,-2.1 1.45,-0.7 3.3,-0.95"
               style="fill:#f12799;fill-opacity:1"
               inkscape:connector-curvature="0" />
          </g>
          <g
             transform="matrix(0.46875,0,0,0.46875,100.15,82.55)"
             id="PathID_13"
             style="opacity:1;fill:#f12799;fill-opacity:1">
            <path
               id="path193"
               d="m 12.65,-26.7 7.05,8.25 -11.2,7.85 0,4.55 5.75,2.3 3.95,-2.7 0.6,0.8 L 10.65,0 Q 8.15,-1.3 6.55,-1.9 4.95,-2.5 2,-3.1 l 0,-0.65 q 0.85,-0.5 1.15,-1.2 0.3,-0.75 0.3,-3.2 l 0,-14.35 q 2.35,-0.85 3.9,-1.55 l 5.3,-2.65 m -3.8,2.9 -0.35,0.2 0,11.35 6.55,-4.65 -6.2,-6.9"
               style="fill:#f12799;fill-opacity:1"
               inkscape:connector-curvature="0" />
          </g>
          <g
             transform="matrix(0.46875,0,0,0.46875,109.65,82.55)"
             id="PathID_15"
             style="opacity:1;fill:#f12799;fill-opacity:1">
            <path
               id="path197"
               d="m 12.55,-35.85 0,0.6 q -2,1.05 -2.8,2.55 -0.8,1.5 -0.8,4.5 l 0,22.25 2.85,2.15 1.1,-0.9 0.65,0.9 -5,3.8 Q 6.25,-1.95 5.1,-2.6 4,-3.25 2.15,-3.8 l 0,-0.5 Q 2.85,-4.7 3.2,-5.35 3.6,-6 3.75,-6.9 l 0.1,-3 0,-17.9 q 0,-2.25 -0.2,-3.15 -0.2,-0.9 -0.75,-1.7 -0.5,-0.8 -1.75,-1.85 L 1.5,-35 q 2.3,0.65 4.1,2.65 1.9,-1.95 3.4,-2.65 1.55,-0.75 3.55,-0.85"
               style="fill:#f12799;fill-opacity:1"
               inkscape:connector-curvature="0" />
          </g>
          <g
             transform="matrix(0.46875,0,0,0.46875,116.4,82.55)"
             id="PathID_17"
             style="opacity:1;fill:#f12799;fill-opacity:1">
            <path
               id="path201"
               d="m 8.4,-35.2 3.2,0 -3.45,5.4 -1.05,0 1.3,-5.4 m -1.9,8.5 4.45,3.7 -2,1.9 0,13.65 q 0,2.15 0.35,2.8 Q 9.65,-4 10.05,-4 l 0.5,-0.1 1.3,-1.1 0.65,0.8 L 7.1,0 Q 5.1,-1.4 4.5,-2.65 3.95,-3.95 3.95,-7.1 l 0,-14 -1.9,-1.9 4.45,-3.7"
               style="fill:#f12799;fill-opacity:1"
               inkscape:connector-curvature="0" />
          </g>
          <g
             transform="matrix(0.46875,0,0,0.46875,123.15,82.55)"
             id="PathID_19"
             style="opacity:1;fill:#f12799;fill-opacity:1">
            <path
               id="path205"
               d="m 12.6,-35.85 0,0.6 q -1.9,1.3 -2.55,2.7 -0.65,1.35 -0.65,4.45 l 0,8.65 7.45,-7.25 5.05,5.6 -5.8,5.05 q 2,1.45 2.95,3.1 1,1.65 1.55,4.85 0.6,3.15 0.9,3.65 0.35,0.45 0.6,0.45 0.3,0 1.65,-1.05 l 0.5,0.8 L 18.4,0 Q 17.35,-1.05 16.85,-2.2 16.35,-3.4 16.1,-5.65 L 9,0 Q 7.5,-1.45 6.05,-2.25 4.65,-3.1 2.6,-3.8 l 0,-0.5 Q 3.75,-5.05 4.05,-5.85 4.4,-6.7 4.4,-10.1 l 0,-18.15 q 0,-2.15 -0.2,-3 -0.3,-1.25 -0.85,-1.9 -0.5,-0.7 -1.65,-1.3 l 0.35,-0.75 q 1.45,0.6 2.2,1.05 0.8,0.45 1.9,1.5 1.65,-1.55 3.1,-2.25 1.45,-0.7 3.35,-0.95 m 1.35,13.3 -4.55,4.4 0,6.7 8.25,-7.05 -3.7,-4.05 m -4.55,12.3 0,4.4 2.9,2.05 3.7,-3 q -0.65,-4.2 -3.7,-6.05 l -2.9,2.6"
               style="fill:#f12799;fill-opacity:1"
               inkscape:connector-curvature="0" />
          </g>
          <g
             transform="matrix(0.46875,0,0,0.46875,134.9,82.55)"
             id="PathID_21"
             style="opacity:1;fill:#f12799;fill-opacity:1">
            <path
               id="path209"
               d="m 19.9,-23.05 0,18.75 q -3.8,1.55 -5.5,2.5 -1.25,0.75 -2.45,1.8 -3.6,-2.2 -6,-3.05 Q 4.15,-3.75 1.9,-3.8 L 1.65,-4.3 Q 2.6,-5.1 2.85,-5.75 3.2,-6.6 3.2,-8.6 l 0,-13.8 q 4.6,-1.5 7.9,-4.3 3.55,2.35 8.8,3.65 m -11.6,16.3 6.5,2.7 0,-15.9 q -3.1,-1.4 -4.35,-1.85 -0.9,-0.35 -2.15,-0.6 l 0,15.65"
               style="fill:#f12799;fill-opacity:1"
               inkscape:connector-curvature="0" />
          </g>
          <g
             transform="matrix(0.46875,0,0,0.46875,145.65,82.55)"
             id="PathID_23"
             style="opacity:1;fill:#f12799;fill-opacity:1">
            <path
               id="path213"
               d="m 17.4,-26.7 3.45,3.75 2.4,-2.35 0.75,0.7 q -1.8,1.65 -2.15,2.45 -0.5,1.1 -0.5,3.05 l 0,11.95 q 0,1.65 0.5,2.45 0.35,0.5 0.75,0.5 0.35,0 1.65,-1 L 24.9,-4.4 19.5,0 q -2.1,-1.55 -2.7,-2.75 -0.55,-1.2 -0.55,-3.9 l 0,-13.75 -2.3,-2.3 -4.2,3.4 0,13.9 1.9,1.85 L 7.2,0 2.75,-3.55 l 1.9,-1.85 0,-12.75 q 0,-2.75 -0.6,-3.7 -0.35,-0.65 -0.85,-0.65 -0.5,0 -1.5,1 l -0.6,-0.8 5.3,-4.4 q 2.2,1.65 2.75,2.65 0.6,0.95 0.6,2.6 l 0,0.9 7.65,-6.15"
               style="fill:#f12799;fill-opacity:1"
               inkscape:connector-curvature="0" />
          </g>
        </g>
      </g>
      <g
         transform="matrix(0.46875,0,0,0.46875,145.65,82.55)"
         id="PathID_24"
         style="opacity:1" />
      <g
         id="g269">
        <g
           transform="matrix(0.46875,0,0,0.46875,69.9,105.05)"
           id="PathID_25"
           style="opacity:1">
          <path
             id="path272"
             d="m 1.1,-16.5 q 0,-0.3 0.15,-0.75 l 0.6,-1.05 0.75,-1.15 0.3,-0.55 0.3,-0.75 0.5,-1 q 0.25,-0.3 0.55,-1.2 l 0.8,-2.4 0.4,-0.95 0.55,-1.35 q 0.1,-0.6 0.35,-1.35 l 0.75,-1.75 1.05,-1.75 q 0.6,-0.9 1.7,-1.3 0.4,0.25 0.6,0.55 0.25,0.25 0.25,0.5 0,0.65 -0.55,1.7 -0.55,1 -0.55,1.4 0,0.2 0.2,0.35 0.2,-0.1 0.7,-0.6 l 1.4,-1.35 1.25,-1.05 q 0.6,-0.4 1.1,-0.5 0.3,-0.15 0.8,-0.25 l 1.15,-0.3 0.5,-0.35 0.55,-0.3 0.4,0.05 q 0.2,0.25 1.2,0.5 l 1.35,0.2 0.5,0.45 0.8,0.55 q 1,0.6 1.85,1.8 0.85,1.15 1.55,2.85 0.65,1.6 1,3.05 0.35,1.4 0.35,2.7 0,4.2 -1.05,7.3 -1.05,3.05 -3.2,5 l -0.5,0.5 -0.7,0.7 0,0.25 q -0.05,0.25 -0.3,0.55 -0.2,0.3 -0.65,0.65 L 18,-5.15 16.05,-3.5 q -1.25,1.1 -2.4,1.75 -1.1,0.6 -2.15,0.85 -0.45,0.4 -1.15,0.6 -0.65,0.2 -1.6,0.2 -1.4,0 -2.3,-0.15 Q 5.6,-0.45 5.25,-0.8 L 4.7,-1.25 4,-1.85 Q 3.6,-2.15 3.2,-3 2.85,-3.9 2.55,-5.25 l -0.3,-2 -0.1,-1.8 0.1,-0.8 q 0.15,-0.6 0.1,-0.9 l -0.05,-1 q 0,-0.45 0.25,-1.4 0.3,-1 0.3,-1.55 0,-0.15 -0.15,-0.4 -0.4,0.45 -0.55,0.85 Q 2,-14 1.8,-13.85 l -0.4,0.1 q -0.25,0 -0.45,-0.2 -0.15,-0.25 -0.15,-0.7 l 0.15,-0.9 q 0.15,-0.6 0.15,-0.95 m 14.95,-12.2 q -0.6,0 -1.25,0.15 l -1.25,0.4 -2.4,1.1 q -0.25,0.1 -0.6,0.4 -0.3,0.25 -0.65,0.75 l -1.15,1.4 q -0.55,0.65 -1,2.4 -0.4,1.7 -0.75,4.5 l -0.3,3.95 -0.1,3.4 q 0,3.15 0.95,4.75 0.95,1.55 2.95,1.55 0.9,0 2.05,-0.5 1.15,-0.5 2.5,-1.5 1.15,-0.85 2,-1.7 0.9,-0.85 1.5,-1.75 0.25,-0.35 0.75,-1.45 l 1.5,-3.1 q 0.65,-1.45 1,-2.9 0.35,-1.45 0.35,-3 l -0.35,-1.5 0.2,-1.05 -0.45,-0.55 -0.1,-0.35 Q 20.65,-26 19.3,-27.35 18,-28.7 16.05,-28.7"
             style="fill:#7ca400;fill-opacity:1"
             inkscape:connector-curvature="0" />
        </g>
        <g
           transform="matrix(0.46875,0,0,0.46875,69.9,105.05)"
           id="PathID_26"
           style="opacity:1" />
        <g
           transform="matrix(0.46875,0,0,0.46875,82.6,105.05)"
           id="PathID_27"
           style="opacity:1">
          <path
             id="path276"
             d="M -0.9,-7.45 0.35,-9 l 1.95,-2.1 0.15,-0.5 0.4,-0.8 q 1.35,-2 2.4,-3.8 1.05,-1.85 1.8,-3.55 l 0.45,-1.05 0.7,-1.45 0.65,-0.95 q 0.35,-0.35 0.7,-0.35 0.5,0 0.7,0.45 0.25,0.45 0.25,1.35 0,0.5 -0.85,3.25 l -2.55,7.7 q -0.45,1.2 -1,3.35 L 4.8,-2.05 4.65,-0.95 4.4,0.5 3.75,3.05 Q 3.6,4 3.65,4.25 l 0.1,0.2 Q 3.85,4.4 4,4 4.2,3.6 4.3,2.85 L 4.5,1.7 Q 4.6,1.25 4.55,0.95 l 1.3,-3.7 1.75,-5.3 0.9,-1.75 q 0.55,-1.05 1.1,-2.45 0.6,-0.55 1.05,-0.8 0.45,-0.3 0.8,-0.3 0.7,0 1.3,0.4 0.6,0.35 1.1,1.1 l 0.45,0.9 0.9,1.9 q 0.35,0.75 0.7,1.2 0.35,0.4 0.7,0.4 l 1.05,2.3 -0.7,0.2 -1.55,0.3 -1.7,-0.6 q -0.6,-0.2 -1.5,-1.25 -0.9,-1.05 -1.45,-1.2 -0.5,0.35 -1.1,1.45 -0.6,1.1 -1.25,2.85 L 8,-2.5 7.55,-1.45 7.2,0.35 Q 6.85,1.1 6.45,2.25 L 5.7,5.05 Q 5.55,5.6 5.05,6.7 4.55,7.8 4.45,8.35 l -0.25,0.9 -0.45,1.4 q -0.6,1 -1.1,1.5 -0.45,0.5 -0.75,0.5 -0.75,0 -1.15,-0.75 Q 0.4,11.2 0.4,9.8 0.4,7.65 0.65,5.05 0.9,2.5 1.4,-0.45 l 0.3,-1.7 0.35,-1.8 Q 2.3,-5 2.35,-5.85 2.45,-6.75 2.4,-7.45 2.15,-7.4 1.55,-6.8 1,-6.25 0.1,-5.15 l -0.35,-0.9 -0.65,-1.4"
             style="fill:#7ca400;fill-opacity:1"
             inkscape:connector-curvature="0" />
        </g>
        <g
           transform="matrix(0.46875,0,0,0.46875,82.6,105.05)"
           id="PathID_28"
           style="opacity:1" />
        <g
           transform="matrix(0.46875,0,0,0.46875,90.8,105.05)"
           id="PathID_29"
           style="opacity:1">
          <path
             id="path280"
             d="m -0.9,-7.45 q 0.3,-0.5 0.8,-1.05 0.45,-0.55 1.2,-1.1 l 0.1,-1 0.15,-1 0.2,-0.8 0.4,-1.05 0.6,-1.35 q 0.4,-0.85 1,-1.85 l 1.1,-1.25 1.15,-1.4 0.6,-0.45 0.65,-0.45 0.65,-0.15 q 0.4,-0.1 0.85,-0.1 0.65,0 1,0.15 0.4,0.1 0.65,0.4 0.2,0.2 0.35,0.6 l 0.3,1 0.2,1.1 q 0,-0.15 -0.1,0.15 l -0.25,0.85 -0.25,0.8 q -0.35,1.2 -1.6,2.8 -1.2,1.55 -3.25,3.55 L 5.25,-8.6 q -0.1,0.25 -0.1,0.55 0,0.55 0.15,0.95 0.2,0.4 0.55,0.6 0.2,0.15 0.65,0.3 l 1.05,0.25 Q 8.5,-6 9.3,-6.25 q 0.8,-0.25 1.45,-0.6 l 0.35,-0.2 0.6,-0.4 0.55,1.35 0.45,0.95 Q 11.25,-3.75 10.05,-3 8.9,-2.3 7.95,-2.3 7.55,-2.05 7,-1.95 6.5,-1.85 5.8,-1.85 4.9,-1.85 4.15,-2.1 3.45,-2.4 3,-2.9 2.75,-3.15 2.5,-3.65 L 1.95,-4.8 q -0.2,-0.55 -0.4,-0.8 -0.2,-0.3 -0.45,-0.3 -0.2,0 -0.45,0.2 l -0.55,0.55 -0.35,-0.9 -0.65,-1.4 m 8.05,-8.15 q -0.55,0 -1.5,1.45 -0.9,1.45 -0.9,2.15 l 0.05,0.2 0.25,0.05 q 0.3,0 0.45,-0.25 l 0.35,-0.55 0.5,-0.55 0.55,-0.55 q 0.3,-0.35 0.45,-0.7 0.15,-0.35 0.15,-0.7 0,-0.25 -0.1,-0.4 -0.1,-0.15 -0.25,-0.15"
             style="fill:#7ca400;fill-opacity:1"
             inkscape:connector-curvature="0" />
        </g>
        <g
           transform="matrix(0.46875,0,0,0.46875,90.8,105.05)"
           id="PathID_30"
           style="opacity:1" />
        <g
           transform="matrix(0.46875,0,0,0.46875,96.7,105.05)"
           id="PathID_31"
           style="opacity:1">
          <path
             id="path284"
             d="m -0.9,-7.45 0.25,-0.35 0.4,-0.55 0.65,-0.55 0.9,-0.9 1.1,-1.2 1.55,-1.8 1,-1.1 1.45,-1.6 q 0.7,-0.8 1.5,-1.2 0.8,-0.45 1.7,-0.45 0.9,0 1.3,0.6 0.45,0.55 0.45,1.65 0,0.55 -0.45,2.2 -0.4,1.6 -1.3,4.3 L 9.15,-7.45 8.95,-6.9 8.9,-6.5 q 0,0.15 0.2,0.35 L 9.3,-6.3 9.6,-6.65 Q 9.8,-7 10.2,-7.4 q 0.4,-0.45 1,-0.95 0.2,-0.4 0.55,-0.8 0.4,-0.45 0.85,-0.8 l 0.25,-0.3 0.4,-0.5 0.75,-0.65 1.05,-0.75 1.2,-0.55 q 0.55,-0.2 0.95,-0.2 0.8,0 1.4,0.4 0.6,0.35 1,1.15 l 0.95,2.9 q 0.3,0.75 0.6,1.15 0.35,0.35 0.8,0.35 0.3,0 0.55,-0.1 0.3,-0.15 0.55,-0.4 l 1,2.3 -0.9,0.75 -0.9,0.7 q -0.55,0.55 -1.05,0.75 -0.5,0.2 -1,0.2 -0.6,0 -1.15,-0.25 -0.5,-0.25 -0.85,-0.75 L 17.7,-4.45 17,-5.8 16.25,-6.65 15.3,-7.95 15.05,-8 q -0.45,0.15 -0.95,0.45 -0.45,0.3 -0.95,0.8 -1.15,1 -1.65,1.25 -0.5,0.25 -0.65,0.55 -0.35,0.6 -1.2,1.55 L 7.5,-1.15 6.85,-0.5 6.2,0.1 q -0.3,0.3 -0.75,0.4 -0.4,0.1 -0.9,0.1 -1,0 -1.1,-0.65 L 3.3,-1.45 Q 3.7,-2.5 4.15,-4.1 l 1.1,-3.7 0.1,-0.3 0.2,-0.6 0.2,-0.55 0.05,-0.4 q 0,-0.2 -0.15,-0.3 -0.1,-0.1 -0.4,-0.1 -0.25,0 -0.65,0.3 -0.4,0.3 -1,0.95 L 2.45,-7.6 1.9,-7.1 1.3,-6.6 0.55,-5.9 0.4,-5.6 0.1,-5.15 -0.25,-6.05 -0.9,-7.45"
             style="fill:#7ca400;fill-opacity:1"
             inkscape:connector-curvature="0" />
        </g>
        <g
           transform="matrix(0.46875,0,0,0.46875,96.7,105.05)"
           id="PathID_32"
           style="opacity:1" />
        <g
           transform="matrix(0.46875,0,0,0.46875,113.9,105.05)"
           id="PathID_33"
           style="opacity:1">
          <path
             id="path288"
             d="m -0.75,-9.75 -0.1,-0.4 0,-0.35 q 0,-0.8 0.2,-1.4 0.2,-0.6 0.6,-1 l 0.5,-0.3 1.1,-0.45 Q 2,-13.9 2.3,-14.2 q 0.3,-0.3 0.3,-0.75 l 0.3,-0.8 0.55,-1 0.6,-1.7 1.4,-4.65 0.5,-1.55 0.4,-1.2 q 0.8,-2.1 1.3,-2.75 l 0.8,-1.1 0,-0.15 -0.8,-1.2 1,-1.15 1.25,-0.25 q 0.35,-0.05 0.65,-0.7 0.35,-0.65 1.1,-1.4 0.2,-0.05 0.55,-0.3 l 1,-0.75 0.9,-0.65 q 0.4,-0.2 0.6,-0.2 0.7,0 1,0.3 0.3,0.25 0.3,0.7 0,0.55 -0.6,1.6 -0.55,1.05 -0.55,1.6 0,0.25 0.1,0.45 0.1,0.15 0.25,0.2 l 3,1.6 q 0.25,0.1 0.45,0.8 0.2,0.7 0.35,1.9 l 0.2,1.65 0.1,1.05 -0.35,2.2 0.55,2.95 -0.3,3 0.05,0.25 q 0.05,0.1 0.2,0.15 0.4,0 0.6,0.2 0.25,0.2 0.25,0.55 0,0.45 -0.15,0.75 -0.15,0.25 -0.4,0.4 l -0.55,0.35 -0.25,0.25 0.35,1.55 -0.45,3.55 -0.1,1.15 -0.2,1.6 -0.4,1.15 -0.1,0.6 0.2,0.9 -0.3,1.35 -0.3,1.3 Q 17.35,0.5 16.9,0.9 16.45,1.3 15.85,1.3 15.55,1.3 15.35,1 15.2,0.75 15.2,0.15 l 0.1,-0.7 0.1,-0.75 -0.05,-0.45 -0.05,-0.55 0.1,-2.2 q 0.15,-1.55 0.15,-2.35 L 15.3,-7.7 15.4,-8.65 q 0.05,-0.5 0,-0.95 l 0.35,-0.65 -0.3,-2.35 -0.2,-0.05 -0.45,0.1 -0.7,0.35 -0.95,0.25 q -0.6,0.1 -1.65,0.1 l -0.85,0.4 -1.5,0.45 -2,0.75 Q 6.5,-9.9 5.9,-9.7 5.35,-9.55 5,-9.55 4.7,-9.55 4.5,-9.3 4.3,-9.1 4.15,-8.65 4.1,-8.25 3.8,-7.55 L 3.05,-5.8 2.75,-4.95 2.35,-3.55 2,-2.7 1.55,-1.6 1.5,-0.85 l -0.2,1 -0.35,0.9 -0.5,1.2 Q 0.25,2.65 -0.1,2.8 -0.5,3 -1.1,3 -1.55,3 -1.75,2.7 -2,2.45 -2,1.85 -2,1.2 -1.85,0.35 -1.7,-0.5 -1.4,-1.5 l 0.6,-2.1 0.3,-1.25 0.2,-0.65 0.35,-1.1 Q 0.3,-7.2 0.5,-8 l -0.15,-0.2 -0.8,0.1 q -0.25,0 -0.35,-0.2 -0.15,-0.2 -0.15,-0.55 l 0.05,-0.35 0.15,-0.55 m 9.05,-4.6 q 0.6,0 1.7,-0.25 1.15,-0.3 1.7,-0.3 l 0.7,0.15 1.25,-0.3 1.2,-0.3 q 0.25,-0.05 0.35,-0.2 0.15,-0.15 0.15,-0.35 l -0.05,-1.05 0.05,-1.05 0.2,-1.2 -0.3,-1.15 0.1,-1 -0.15,-1.05 q -0.05,-0.5 0,-0.8 L 15,-23.5 14.75,-24 14.2,-24.8 13.7,-25.6 q -0.35,-0.5 -0.75,-0.7 -0.4,-0.25 -0.8,-0.25 -0.5,0 -1.05,0.8 -0.5,0.8 -0.95,2.45 l -0.45,0.85 -0.95,1.6 q -0.1,0.95 -0.7,2.35 -0.55,1.4 -1.55,3.35 -0.15,0.15 -0.15,0.3 l 0,0.25 0.05,0.3 0.3,0.05 0.8,-0.05 0.8,-0.05"
             style="fill:#7ca400;fill-opacity:1"
             inkscape:connector-curvature="0" />
        </g>
        <g
           transform="matrix(0.46875,0,0,0.46875,113.9,105.05)"
           id="PathID_34"
           style="opacity:1" />
        <g
           transform="matrix(0.46875,0,0,0.46875,124.45,105.05)"
           id="PathID_35"
           style="opacity:1">
          <path
             id="path292"
             d="m -0.9,-7.45 0.2,-0.2 q 0.05,-0.25 0.4,-0.6 0.3,-0.4 0.9,-0.9 l 0.75,-0.55 0.8,-0.55 3.05,-2.6 q 0.85,-0.75 1.7,-1.25 0.85,-0.55 1.65,-0.9 0.5,-0.65 1.95,-1.35 1.45,-0.75 2.35,-0.75 0.35,0 0.55,0.25 0.2,0.2 0.25,0.5 l 0,1.35 q 0,0.75 -0.4,1.3 -0.4,0.55 -1.25,1.05 l -1.1,0.55 -1.1,0.55 q -0.2,0.25 -1.1,0.95 l -2.3,1.8 -1.15,0.95 q -0.45,0.4 -0.6,0.65 -0.25,0.5 -0.4,1.1 -0.15,0.55 -0.15,1.3 0,0.55 0.15,1 0.2,0.4 0.55,0.65 l 0.7,0.35 1.1,0.35 0.95,-0.3 1.4,-0.35 1.75,-1.05 1.75,-1.15 0.3,-0.15 0.4,-0.25 q 0.25,-0.35 0.7,-0.75 l 1.1,-1 1,2.3 -1.9,1.55 Q 13.1,-2.8 11.85,-2.3 11.45,-2 11.2,-1.7 9.95,-0.45 8.25,0.15 6.6,0.8 4.45,0.8 4,0.8 3.6,0.7 L 3,0.55 1.7,-0.35 0.75,-1.1 Q 0.4,-1.45 0.25,-1.8 0,-2.15 -0.1,-2.65 q -0.1,-0.5 -0.1,-1.2 l 0.15,-0.65 0.15,-0.65 -0.45,-1.1 -0.55,-1.2"
             style="fill:#7ca400;fill-opacity:1"
             inkscape:connector-curvature="0" />
        </g>
        <g
           transform="matrix(0.46875,0,0,0.46875,124.45,105.05)"
           id="PathID_36"
           style="opacity:1" />
        <g
           transform="matrix(0.46875,0,0,0.46875,131.85,105.05)"
           id="PathID_37"
           style="opacity:1">
          <path
             id="path296"
             d="m -0.9,-7.45 0.2,-0.2 q 0.05,-0.25 0.4,-0.6 0.3,-0.4 0.9,-0.9 l 0.75,-0.55 0.8,-0.55 3.05,-2.6 q 0.85,-0.75 1.7,-1.25 0.85,-0.55 1.65,-0.9 0.5,-0.65 1.95,-1.35 1.45,-0.75 2.35,-0.75 0.35,0 0.55,0.25 0.2,0.2 0.25,0.5 l 0,1.35 q 0,0.75 -0.4,1.3 -0.4,0.55 -1.25,1.05 l -1.1,0.55 -1.1,0.55 q -0.2,0.25 -1.1,0.95 l -2.3,1.8 -1.15,0.95 q -0.45,0.4 -0.6,0.65 -0.25,0.5 -0.4,1.1 -0.15,0.55 -0.15,1.3 0,0.55 0.15,1 0.2,0.4 0.55,0.65 l 0.7,0.35 1.1,0.35 0.95,-0.3 1.4,-0.35 1.75,-1.05 1.75,-1.15 0.3,-0.15 0.4,-0.25 q 0.25,-0.35 0.7,-0.75 l 1.1,-1 1,2.3 -1.9,1.55 Q 13.1,-2.8 11.85,-2.3 11.45,-2 11.2,-1.7 9.95,-0.45 8.25,0.15 6.6,0.8 4.45,0.8 4,0.8 3.6,0.7 L 3,0.55 1.7,-0.35 0.75,-1.1 Q 0.4,-1.45 0.25,-1.8 0,-2.15 -0.1,-2.65 q -0.1,-0.5 -0.1,-1.2 l 0.15,-0.65 0.15,-0.65 -0.45,-1.1 -0.55,-1.2"
             style="fill:#7ca400;fill-opacity:1"
             inkscape:connector-curvature="0" />
        </g>
        <g
           transform="matrix(0.46875,0,0,0.46875,131.85,105.05)"
           id="PathID_38"
           style="opacity:1" />
        <g
           transform="matrix(0.46875,0,0,0.46875,139.25,105.05)"
           id="PathID_39"
           style="opacity:1">
          <path
             id="path300"
             d="m -0.9,-7.45 q 0.3,-0.5 0.8,-1.05 0.45,-0.55 1.2,-1.1 l 0.1,-1 0.15,-1 0.2,-0.8 0.4,-1.05 0.6,-1.35 q 0.4,-0.85 1,-1.85 l 1.1,-1.25 1.15,-1.4 0.6,-0.45 0.65,-0.45 0.65,-0.15 q 0.4,-0.1 0.85,-0.1 0.65,0 1,0.15 0.4,0.1 0.65,0.4 0.2,0.2 0.35,0.6 l 0.3,1 0.2,1.1 q 0,-0.15 -0.1,0.15 l -0.25,0.85 -0.25,0.8 q -0.35,1.2 -1.6,2.8 -1.2,1.55 -3.25,3.55 L 5.25,-8.6 q -0.1,0.25 -0.1,0.55 0,0.55 0.15,0.95 0.2,0.4 0.55,0.6 0.2,0.15 0.65,0.3 l 1.05,0.25 Q 8.5,-6 9.3,-6.25 q 0.8,-0.25 1.45,-0.6 l 0.35,-0.2 0.6,-0.4 0.55,1.35 0.45,0.95 Q 11.25,-3.75 10.05,-3 8.9,-2.3 7.95,-2.3 7.55,-2.05 7,-1.95 6.5,-1.85 5.8,-1.85 4.9,-1.85 4.15,-2.1 3.45,-2.4 3,-2.9 2.75,-3.15 2.5,-3.65 L 1.95,-4.8 q -0.2,-0.55 -0.4,-0.8 -0.2,-0.3 -0.45,-0.3 -0.2,0 -0.45,0.2 l -0.55,0.55 -0.35,-0.9 -0.65,-1.4 m 8.05,-8.15 q -0.55,0 -1.5,1.45 -0.9,1.45 -0.9,2.15 l 0.05,0.2 0.25,0.05 q 0.3,0 0.45,-0.25 l 0.35,-0.55 0.5,-0.55 0.55,-0.55 q 0.3,-0.35 0.45,-0.7 0.15,-0.35 0.15,-0.7 0,-0.25 -0.1,-0.4 -0.1,-0.15 -0.25,-0.15"
             style="fill:#7ca400;fill-opacity:1"
             inkscape:connector-curvature="0" />
        </g>
        <g
           transform="matrix(0.46875,0,0,0.46875,139.25,105.05)"
           id="PathID_40"
           style="opacity:1" />
        <g
           transform="matrix(0.46875,0,0,0.46875,145.15,105.05)"
           id="PathID_41"
           style="opacity:1">
          <path
             id="path304"
             d="m -0.9,-7.45 0.15,-0.15 q 0.1,-0.35 0.45,-0.75 0.3,-0.4 0.95,-0.8 L 1.9,-10 q 0.5,-0.35 0.6,-0.5 l 0.3,-0.4 0.65,-0.55 0.9,-0.85 0.4,-0.4 0.4,-0.65 0.7,-0.55 1,-0.9 1.4,-1.5 1.75,-1.7 0.6,-0.25 0.6,-0.1 q 1.1,0 1.65,0.55 0.6,0.55 0.6,1.55 l -0.1,0.85 -0.2,1.45 q -0.35,2.5 -0.5,3.05 l -1.05,3.45 -0.4,1.2 -0.5,1.7 0.25,0.2 q 0.15,0 0.6,-0.35 l 1.2,-1 1.35,-1.2 0.65,-0.55 0.55,1.25 0.45,1.05 q -0.35,0.2 -0.6,0.45 l -0.5,0.55 -1.2,0.8 -1.5,1 -1.05,0.9 -1.4,1.2 -0.5,0.1 Q 8.65,0.35 8.35,0.6 L 7.8,0.95 7,1.2 6.15,1.5 Q 5.85,1.45 5.7,1.2 5.6,0.95 5.65,0.55 5.25,-0.15 5,-1 4.8,-1.9 4.8,-2.95 l 0,-0.4 0.1,-0.45 -0.2,-0.75 q 0,-0.75 0.55,-1.25 0.6,-0.5 1.35,-0.5 0.35,0 0.5,0.4 0.2,0.4 0.35,0.4 0.2,0 0.35,-0.7 0.2,-0.7 0.4,-2 l 0.2,-2 0.05,-1.3 q 0,-0.35 -0.15,-0.5 -0.1,-0.15 -0.45,-0.15 -0.3,0 -2.1,1.5 Q 4,-9.15 0.8,-6.2 l -0.3,0.45 -0.4,0.6 -0.35,-0.9 -0.65,-1.4"
             style="fill:#7ca400;fill-opacity:1"
             inkscape:connector-curvature="0" />
        </g>
        <g
           transform="matrix(0.46875,0,0,0.46875,145.15,105.05)"
           id="PathID_42"
           style="opacity:1" />
        <g
           transform="matrix(0.46875,0,0,0.46875,152.45,105.05)"
           id="PathID_43"
           style="opacity:1">
          <path
             id="path308"
             d="m -0.9,-7.45 0.15,-0.15 q 0.1,-0.35 0.45,-0.75 0.3,-0.4 0.95,-0.8 L 1.9,-10 q 0.5,-0.35 0.6,-0.5 l 0.3,-0.4 0.65,-0.55 0.9,-0.85 0.4,-0.4 0.4,-0.65 0.7,-0.55 1,-0.9 1.4,-1.5 1.75,-1.7 0.6,-0.25 0.6,-0.1 q 1.1,0 1.65,0.55 0.6,0.55 0.6,1.55 l -0.1,0.85 -0.2,1.45 q -0.35,2.5 -0.5,3.05 l -1.05,3.45 -0.4,1.2 -0.5,1.7 0.25,0.2 q 0.15,0 0.6,-0.35 l 1.2,-1 1.35,-1.2 0.65,-0.55 0.55,1.25 0.45,1.05 q -0.35,0.2 -0.6,0.45 l -0.5,0.55 -1.2,0.8 -1.5,1 -1.05,0.9 -1.4,1.2 -0.5,0.1 Q 8.65,0.35 8.35,0.6 L 7.8,0.95 7,1.2 6.15,1.5 Q 5.85,1.45 5.7,1.2 5.6,0.95 5.65,0.55 5.25,-0.15 5,-1 4.8,-1.9 4.8,-2.95 l 0,-0.4 0.1,-0.45 -0.2,-0.75 q 0,-0.75 0.55,-1.25 0.6,-0.5 1.35,-0.5 0.35,0 0.5,0.4 0.2,0.4 0.35,0.4 0.2,0 0.35,-0.7 0.2,-0.7 0.4,-2 l 0.2,-2 0.05,-1.3 q 0,-0.35 -0.15,-0.5 -0.1,-0.15 -0.45,-0.15 -0.3,0 -2.1,1.5 Q 4,-9.15 0.8,-6.2 l -0.3,0.45 -0.4,0.6 -0.35,-0.9 -0.65,-1.4"
             style="fill:#7ca400;fill-opacity:1"
             inkscape:connector-curvature="0" />
        </g>
        <g
           transform="matrix(0.46875,0,0,0.46875,152.45,105.05)"
           id="PathID_44"
           style="opacity:1" />
      </g>
      <g
         transform="matrix(0.16816298,0,0,0.16816298,111.7354,46.254334)"
         id="PathID_45"
         style="opacity:1">
        <path
           id="path312"
           d="M 149.65,32.3 Q 135.9,22.6 117.7,28.15 102.85,32.65 90.95,44.5 L 79.5,38.75 q 0.65,-1.6 1.1,-5.8 0.5,-4.35 0.1,-6.6 -0.65,-6 -7.35,-10.9 Q 67.6,11.2 61.7,10.15 48.8,7.9 42.85,7.65 23.35,6.6 0,11.2 q 2,-0.45 17.4,-6 22.05,-5.95 40.5,-5.1 19.5,1.2 29.7,11.85 5.8,6.1 6.95,13.95 0.45,-0.4 1.05,-0.7 8.25,-5.05 16.85,-6.75 9.1,-1.8 17.4,1.1 8.75,3.05 20.15,12.55 l -0.35,0.2"
           style="fill:#4a7dbc;fill-opacity:1"
           inkscape:connector-curvature="0" />
      </g>
      <g
         transform="matrix(0.149159,0,0,0.149159,114.4,47.35)"
         id="PathID_46"
         style="opacity:1" />
      <g
         transform="matrix(0.17482032,0,0,0.17482032,126.899,57.86663)"
         id="PathID_47"
         style="opacity:1">
        <path
           id="path316"
           d="M 149.65,32.3 Q 135.9,22.6 117.7,28.15 102.85,32.65 90.95,44.5 L 79.5,38.75 q 0.65,-1.6 1.1,-5.8 0.5,-4.35 0.1,-6.6 -0.65,-6 -7.35,-10.9 Q 67.6,11.2 61.7,10.15 48.8,7.9 42.85,7.65 23.35,6.6 0,11.2 q 2,-0.45 17.4,-6 22.05,-5.95 40.5,-5.1 19.5,1.2 29.7,11.85 5.8,6.1 6.95,13.95 0.45,-0.4 1.05,-0.7 8.25,-5.05 16.85,-6.75 9.1,-1.8 17.4,1.1 8.75,3.05 20.15,12.55 l -0.35,0.2"
           style="fill:#4a7dbc;fill-opacity:1"
           inkscape:connector-curvature="0" />
      </g>
      <g
         transform="matrix(0.155064,0,0,0.155064,127.85,57.65)"
         id="PathID_48"
         style="opacity:1" />
      <g
         transform="matrix(0.13625168,0,0,0.13625168,138.45496,47.43811)"
         id="PathID_49"
         style="opacity:1">
        <path
           id="path320"
           d="M 102.5,48.05 Q 94,54.55 91.5,66.5 89,27.65 56.5,19.65 43,16.2 28,19.65 13.5,23.15 3,32.1 l -3,4 Q 4.5,21.15 19,11.2 33.5,1.75 50.5,0.25 q 17.5,-1.5 30,6.95 14,9 17,27.9 19.5,-17.45 35,-5.95 15,11.45 17.5,41.35 -3,-13.95 -12,-21.45 -7.5,-6.95 -17.5,-6.95 -10,-0.5 -18,5.95"
           style="fill:#4a7dbc;fill-opacity:1"
           inkscape:connector-curvature="0" />
      </g>
      <g
         transform="matrix(0.120854,0,0,0.120854,138.1,48.4)"
         id="PathID_50"
         style="opacity:1" />
      <rect
         style="fill:#71c837;fill-opacity:1;stroke:none;stroke-width:14.17322826;stroke-linejoin:miter;stroke-miterlimit:4;stroke-dasharray:none;stroke-dashoffset:0;stroke-opacity:1;filter:url(#filter6003)"
         id="rect5533"
         width="496.30844"
         height="142.98657"
         x="263.57764"
         y="-3.6669881"
         ry="1.1896045" />
      <text
         xml:space="preserve"
         style="font-style:normal;font-weight:normal;font-size:17.76403999px;line-height:125%;font-family:sans-serif;letter-spacing:0px;word-spacing:0px;fill:#808000;fill-opacity:1;stroke:none;stroke-width:1px;stroke-linecap:butt;stroke-linejoin:miter;stroke-opacity:1;"
         x="443.41031"
         y="107.54436"
         id="text3768"
         sodipodi:linespacing="125%"><tspan
           sodipodi:role="line"
           id="tspan3770"
           x="443.41031"
           y="107.54436"
           style="-inkscape-font-specification:'Ubuntu Medium Italic';font-family:Ubuntu;font-weight:500;font-style:italic;font-stretch:normal;font-variant:normal;fill:#000000">Register Now</tspan></text>
    </g>
    <text
       xml:space="preserve"
       style="font-style:normal;font-weight:normal;font-size:40px;line-height:125%;font-family:sans-serif;letter-spacing:0px;word-spacing:0px;fill:#f1150b;fill-opacity:1;stroke:none;stroke-width:1px;stroke-linecap:butt;stroke-linejoin:miter;stroke-opacity:1"
       x="837.5849"
       y="847.04889"
       id="text4799"
       sodipodi:linespacing="125%"><tspan
         sodipodi:role="line"
         id="tspan4801"
         x="837.5849"
         y="847.04889"
         style="font-style:normal;font-variant:normal;font-weight:bold;font-stretch:normal;font-size:60px;font-family:'Comic Sans MS';-inkscape-font-specification:'Comic Sans MS Bold';fill:#f1150b;fill-opacity:1">Call for Paper Vol 3 (2015) Issue 2</tspan></text>
    <text
       xml:space="preserve"
       style="font-style:normal;font-weight:normal;font-size:40px;line-height:125%;font-family:sans-serif;letter-spacing:0px;word-spacing:0px;fill:#000000;fill-opacity:1;stroke:none;stroke-width:1px;stroke-linecap:butt;stroke-linejoin:miter;stroke-opacity:1"
       x="905.24493"
       y="898.37726"
       id="text4803"
       sodipodi:linespacing="125%"><tspan
         sodipodi:role="line"
         id="tspan4805"
         x="905.24493"
         y="898.37726" /><tspan
         sodipodi:role="line"
         x="905.24493"
         y="948.37726"
         id="tspan4807" /></text>
    <text
       xml:space="preserve"
       style="font-style:normal;font-weight:normal;font-size:40px;line-height:125%;font-family:sans-serif;letter-spacing:0px;word-spacing:0px;fill:#000000;fill-opacity:1;stroke:none;stroke-width:1px;stroke-linecap:butt;stroke-linejoin:miter;stroke-opacity:1"
       x="1033.5793"
       y="921.70831"
       id="text4809"
       sodipodi:linespacing="125%"><tspan
         sodipodi:role="line"
         id="tspan4811"
         x="1033.5793"
         y="921.70831"
         style="font-style:normal;font-variant:normal;font-weight:normal;font-stretch:condensed;font-family:impact;-inkscape-font-specification:'impact Condensed';fill:#2734f1;fill-opacity:1">Last Date of Submission:  1<tspan
   style="font-style:normal;font-variant:normal;font-weight:normal;font-stretch:condensed;font-size:64.99999762%;font-family:impact;-inkscape-font-specification:'impact Condensed';baseline-shift:super;fill:#2734f1;fill-opacity:1"
   id="tspan4813">st</tspan> Nov, 2015</tspan></text>
  </g>
</svg>
